<svg version="1.1" xmlns="http://www.w3.org/2000/svg" xmlns:xlink="http://www.w3.org/1999/xlink" x="0px" y="0px"
	 viewBox="0 0 24.3 23.9" style="enable-background:new 0 0 24.3 23.9;" xml:space="preserve">
<g>
	<g>
		<path fill="#571B33" d="M22.1,9.5h-4.8L13,2.9c-0.4-0.6-1.3-0.6-1.7,0L6.9,9.5H2.1c-0.6,0-1,0.5-1,1c0,0.1,0,0.2,0,0.3
			L3.7,20c0.2,0.8,1,1.5,1.9,1.5h13c0.9,0,1.7-0.6,1.9-1.5l2.5-9.3l0-0.3C23.1,9.9,22.7,9.5,22.1,9.5z M12.1,5.2l2.8,4.2H9.3
			L12.1,5.2z M12.1,17.5c-1.1,0-2-0.9-2-2s0.9-2,2-2s2,0.9,2,2S13.2,17.5,12.1,17.5z"/>
	</g>
</g>
</svg>
