<svg version="1.1" xmlns="http://www.w3.org/2000/svg" xmlns:xlink="http://www.w3.org/1999/xlink" x="0px" y="0px"
	 viewBox="0 0 24.3 23.9" style="enable-background:new 0 0 24.3 23.9;" xml:space="preserve">
<g>
	<g>
		<g>
			<path fill="#571B33" d="M20.4,8.5c0-0.9-0.2-1.5-0.4-2c-0.2-0.6-0.5-1.1-1-1.5c-0.4-0.4-0.9-0.8-1.5-1
				c-0.5-0.2-1.1-0.3-2-0.4c-0.9,0-1.2-0.1-3.4-0.1s-2.6,0-3.4,0c-0.9,0-1.5,0.2-2,0.4C6.1,4.3,5.6,4.6,5.2,5
				c-0.4,0.4-0.8,0.9-1,1.5C4,7,3.9,7.6,3.9,8.5c0,0.9-0.1,1.2-0.1,3.4c0,2.3,0,2.5,0,3.4c0,0.9,0.2,1.5,0.4,2
				c0.2,0.6,0.5,1.1,1,1.5c0.4,0.4,0.9,0.8,1.5,1c0.5,0.2,1.1,0.3,2,0.4c0.9,0,1.2,0,3.4,0c2.3,0,2.5,0,3.4,0c0.9,0,1.5-0.2,2-0.4
				c1.1-0.4,2-1.3,2.4-2.4c0.2-0.5,0.3-1.1,0.4-2c0-0.9,0-1.2,0-3.4C20.5,9.7,20.5,9.4,20.4,8.5z M18.9,15.3c0,0.8-0.2,1.3-0.3,1.5
				c-0.3,0.7-0.9,1.3-1.6,1.6c-0.3,0.1-0.7,0.3-1.5,0.3c-0.9,0-1.1,0-3.4,0c-2.2,0-2.5,0-3.4,0c-0.8,0-1.3-0.2-1.6-0.3
				c-0.4-0.1-0.7-0.3-1-0.6c-0.3-0.3-0.5-0.6-0.6-1c-0.1-0.3-0.2-0.7-0.3-1.5c0-0.9-0.1-1.1-0.1-3.4c0-2.2,0-2.5,0.1-3.4
				c0-0.8,0.2-1.3,0.3-1.5c0.1-0.4,0.3-0.7,0.6-1c0.3-0.3,0.6-0.5,0.9-0.6C7.5,5.3,8,5.2,8.8,5.2c0.9,0,1.1,0,3.4,0
				c2.2,0,2.5,0,3.4,0c0.8,0,1.3,0.2,1.5,0.3c0.4,0.1,0.7,0.3,1,0.6c0.3,0.3,0.5,0.6,0.6,1c0.1,0.3,0.2,0.7,0.3,1.5
				c0,0.9,0,1.1,0,3.4C19,14.2,19,14.4,18.9,15.3z"/>
			<path fill="#571B33" d="M12.1,7.7c-2.4,0-4.3,1.9-4.3,4.3s1.9,4.3,4.3,4.3s4.3-1.9,4.3-4.3S14.5,7.7,12.1,7.7z M12.1,14.7
				c-1.5,0-2.8-1.2-2.8-2.8c0-1.5,1.2-2.8,2.8-2.8s2.8,1.2,2.8,2.8C14.9,13.5,13.7,14.7,12.1,14.7z"/>
			<path fill="#571B33" d="M17.6,7.5c0,0.6-0.4,1-1,1c-0.5,0-1-0.4-1-1c0-0.6,0.5-1,1-1C17.1,6.5,17.6,6.9,17.6,7.5z"/>
		</g>
	</g>
</g>
</svg>
