<svg width="60" height="69" viewBox="0 0 60 69" fill="none" xmlns="http://www.w3.org/2000/svg">
    <path d="M23.6257 21.342C22.978 21.4285 22.1464 21.5341 21.5525 21.2978C21.1547 21.2603 20.7093 21.2406 20.3769 21.0683C20.0459 21.0145 19.7006 20.9852 19.3989 20.819C18.1294 20.4819 16.8095 20.3157 15.5658 20.0323C15.29 20.0528 15.0094 20.0385 14.7322 20.031C14.1764 19.9588 13.1548 20.7059 12.9914 19.8846C12.2483 16.5929 11.54 12.8504 12.0372 9.26184C12.1448 8.30765 12.5786 7.05584 13.7576 7.17026C14.7145 7.19341 15.5386 7.90922 15.9309 8.72787C17.6016 11.9282 12.7693 19.8866 15.0496 17.212C15.7865 16.4914 16.5486 15.7777 17.4292 15.2008C17.8883 14.7499 18.4577 14.4469 18.8445 14.0328C18.8384 12.4745 18.5918 10.7486 18.8575 9.18351C18.8615 8.09107 19.0291 7.15323 19.3294 6.1575C19.3506 6.03218 19.4146 6.06351 19.403 5.89937C19.5058 5.77746 19.4445 5.68279 19.4943 5.53909C19.529 5.25848 19.6761 5.07051 19.798 4.84507C19.8505 4.61419 19.9458 4.31792 20.1045 4.16672C20.2877 3.66954 20.6357 3.27656 20.9606 2.94556C21.4837 2.4184 22.4467 2.42317 23.0086 2.91014C25.2064 4.84711 22.8492 7.93715 21.8535 9.8966C21.1752 10.8576 20.5969 11.9657 19.9193 12.8416C19.2286 14.1138 20.1787 13.1685 20.8149 12.8259C21.0274 12.6754 21.2957 12.4452 21.5654 12.407C21.9822 12.2075 22.4699 11.8302 22.9602 11.7185C23.1809 11.5162 23.5324 11.5196 23.7101 11.3807L23.7053 11.3847C25.2439 10.7793 24.81 11.0442 25.1942 9.59011C25.4509 8.48473 25.8569 7.32486 26.2321 6.28009L26.228 6.28486C26.4208 5.86668 26.5556 5.51048 26.7123 5.11478C27.5466 3.46249 28.3571 1.76389 29.7553 0.52638C32.1541 -1.35338 33.4917 2.26925 31.8605 4.06115C30.5794 6.57023 27.644 8.32604 26.1967 10.3611C27.1931 10.0526 28.1555 9.66708 29.1703 9.40622C29.3712 9.30474 29.583 9.2414 29.8071 9.21484C30.2402 9.0221 30.6938 8.89269 31.1563 8.79326C33.551 8.54058 33.7948 6.06215 35.033 4.37649C36.0954 2.23315 39.8257 -2.37295 41.3908 1.69578C40.9297 5.1066 36.2419 5.34225 34.3029 7.65178C33.7233 8.21434 34.4677 7.9208 34.8055 7.92353C35.2557 7.76279 35.7263 7.70422 36.1983 7.64973C41.0394 7.52646 44.1757 1.78977 49.2191 2.34893C52.8083 3.76421 48.6572 6.37408 46.5159 6.22493C44.946 6.51098 41.8887 6.59271 41.134 7.43111C42.3579 7.40795 43.5927 7.5932 44.7853 7.73827C49.3662 8.33081 54.6152 6.29099 58.6819 9.39737C60.544 10.641 60.5419 12.533 57.975 13.2264C57.8054 13.336 57.4975 13.3183 57.3157 13.4028C56.3683 13.5846 55.4046 13.5417 54.5049 13.3456C52.7484 12.9553 51.1717 12.1108 49.6488 11.162C49.3471 10.9332 49.0086 10.7629 48.7246 10.5062L48.728 10.5089C48.3371 10.1207 47.7187 9.80261 47.3727 9.37285C46.6405 8.76533 46.0963 8.59438 45.1238 8.47247C43.699 8.1728 42.1216 8.22456 40.5606 8.17893C39.413 8.22524 38.9185 8.19323 40.3024 8.61141C41.2832 9.06024 42.362 9.33131 43.3012 9.83053C43.3428 9.86391 43.4626 9.87072 43.4674 9.91158C43.9217 10.2153 44.5033 10.4013 44.9821 10.8072L44.9787 10.8045C45.4759 11.3057 46.0609 11.7566 46.413 12.3662C47.6737 14.1812 45.3036 15.2505 43.7861 14.5517C43.7432 14.5143 43.6363 14.5136 43.6186 14.4707C43.5369 14.4312 43.4013 14.3774 43.3686 14.3086C41.5774 12.1312 39.3632 10.1357 37.0537 8.63184C36.1356 8.30152 34.339 9.01052 33.316 9.18283C32.6438 9.3892 32.0253 9.51724 31.3266 9.70453C29.4516 10.0015 31.7291 9.9974 32.481 10.2031C33.3555 10.3781 34.3124 10.656 35.1603 11.0061C36.1356 11.4794 37.2403 11.9868 37.7614 12.815C37.8288 12.7952 37.7988 13.0227 37.8526 13.0466C38.0937 14.5333 36.0076 14.7452 35.0534 14.2344C34.8709 14.1479 34.6059 14.1015 34.4718 13.9899C34.0577 13.7746 33.5666 13.5655 33.1226 13.2611C32.9121 13.1426 32.641 12.9798 32.4578 12.8525C32.3264 12.7871 32.135 12.6679 32.0465 12.6025C31.4355 12.2027 30.6816 11.8383 30.0352 11.5462C27.7366 10.6866 27.52 10.4408 25.1921 11.4358C25.0968 11.5005 24.902 11.5257 24.7774 11.6061C24.6187 11.6878 24.4055 11.7655 24.2093 11.7927C24.1065 11.8996 23.9342 11.9364 23.7844 12.0324C21.671 12.9914 21.0709 13.2066 23.8 12.7074C25.6988 12.5072 27.6617 12.6509 29.4502 13.0629C36.6675 15.2178 31.2407 19.971 26.2566 16.4982C26.1259 16.4104 25.9604 16.3334 25.8426 16.2517C25.6253 16.1407 25.3515 15.9452 25.1826 15.839C24.9919 15.653 24.714 15.5992 24.5097 15.4296C23.6086 14.9141 22.6531 15.0319 21.6982 14.8807C20.0391 14.7404 18.4481 15.0081 17.3516 16.1836C16.5166 16.8613 15.6734 17.556 14.8991 18.3889C15.0523 18.2724 15.2805 18.3658 15.386 18.205C16.2939 17.9108 17.1745 17.5403 18.1226 17.3441C19.9533 16.8476 22.1116 16.6978 23.8484 17.4463C25.6914 18.1458 25.5041 20.8496 23.6291 21.3414L23.6257 21.342ZM12.2613 14.502C12.2572 14.532 12.3048 14.4911 12.3232 14.4904C12.3035 14.4904 12.2831 14.4938 12.2613 14.502ZM12.5671 12.1693C12.5671 12.1687 12.5671 12.1673 12.5671 12.1693V12.1693ZM12.548 10.4435C12.5487 10.4987 12.58 10.5586 12.6379 10.56C12.6038 10.5218 12.5739 10.483 12.548 10.4435ZM12.9553 17.3121C12.9553 17.3121 12.9553 17.3128 12.9553 17.3121C12.9505 17.3101 12.9532 17.3128 12.9553 17.3121ZM13.0629 17.4817C13.0826 17.4926 13.1208 17.494 13.1494 17.5001C13.1262 17.4879 13.0922 17.4838 13.0629 17.4817ZM13.1507 12.738C13.1507 12.7333 13.1501 12.7285 13.1494 12.7237C13.1419 12.7319 13.1371 12.736 13.1507 12.738ZM13.2039 9.19986C13.2216 9.23596 13.2311 9.16036 13.2331 9.15014C13.2195 9.15831 13.21 9.17466 13.2039 9.19986ZM13.5948 19.6639C13.5989 19.6727 13.5996 19.7116 13.603 19.6979C13.6009 19.6864 13.5982 19.6748 13.5948 19.6639ZM13.8046 11.318C13.8046 11.318 13.8018 11.3207 13.8018 11.3214C13.8039 11.3194 13.8073 11.3214 13.8046 11.318ZM14.0143 8.14964C13.9776 8.1333 14.0028 8.15169 14.0157 8.1585C14.0266 8.15986 14.0191 8.15509 14.0143 8.14964ZM15.1143 9.14742C15.1109 9.14537 15.1122 9.14605 15.1143 9.14742C15.119 9.14197 15.1122 9.14401 15.1143 9.14742ZM14.5537 11.4774C14.5565 11.4855 14.5612 11.4685 14.5653 11.4631C14.5626 11.4685 14.549 11.4774 14.5537 11.4774ZM14.5394 18.1996C14.5354 18.1996 14.5306 18.1982 14.5251 18.1955C14.534 18.2064 14.5497 18.2166 14.5394 18.1996ZM18.8145 11.8445C18.8186 11.8445 18.8166 11.8445 18.8145 11.8445C18.8132 11.8486 18.818 11.8445 18.8145 11.8445ZM23.469 4.54335L23.4704 4.54199C23.4704 4.54199 23.469 4.54267 23.469 4.54335ZM23.4057 4.7109C23.4138 4.69796 23.4207 4.68502 23.4281 4.6714C23.4111 4.69115 23.3955 4.7 23.4057 4.7109ZM23.1373 4.61623C23.1455 4.59852 23.1271 4.61623 23.1189 4.61895C23.1251 4.61895 23.1312 4.61827 23.1373 4.61623ZM22.8111 6.32028C22.8138 6.31551 22.8247 6.31074 22.8186 6.30666C22.8152 6.31142 22.807 6.31347 22.8111 6.32028ZM21.7888 4.33154C21.7874 4.31928 21.7868 4.30907 21.7854 4.29749C21.7691 4.30907 21.7786 4.3186 21.7888 4.33154ZM21.4176 8.24227C21.4197 8.22728 21.4217 8.2123 21.406 8.2266C21.4101 8.23205 21.4135 8.23682 21.4176 8.24227ZM21.2038 3.92017C21.2038 3.91813 21.2038 3.91813 21.2038 3.92017V3.92017ZM20.9191 8.33013C20.9204 8.3022 20.8918 8.31378 20.8728 8.31038C20.8871 8.31923 20.9027 8.32604 20.9191 8.33013ZM20.8305 7.83975C20.823 7.83771 20.8271 7.83907 20.8305 7.83975C20.8333 7.82954 20.8258 7.83567 20.8305 7.83975ZM20.729 10.4578C20.7195 10.4524 20.71 10.4496 20.7011 10.451C20.7107 10.453 20.7202 10.4558 20.729 10.4578ZM31.0262 1.72575C31.0248 1.71281 31.0201 1.706 30.9949 1.706C31.0078 1.7169 31.0078 1.72779 31.0262 1.72575ZM30.9915 1.81429C30.9915 1.81429 30.9962 1.80884 30.9969 1.80476C30.9956 1.80816 30.9888 1.81157 30.9915 1.81429ZM30.6012 3.32015C30.6012 3.32015 30.5971 3.31742 30.5944 3.31606C30.5835 3.32219 30.5944 3.32083 30.6012 3.32015ZM29.3399 5.31637C29.3378 5.30275 29.3365 5.28913 29.3351 5.27483C29.3269 5.29117 29.3188 5.30684 29.3399 5.31637ZM28.6785 1.77956C28.6874 1.77138 28.6629 1.75912 28.6595 1.75436C28.6656 1.76253 28.6724 1.77138 28.6785 1.77956ZM28.3489 2.54168C28.3469 2.53419 28.351 2.51171 28.3414 2.52942C28.3401 2.53146 28.3435 2.53759 28.3489 2.54168ZM28.0247 7.58095C28.0125 7.56869 28.0056 7.57073 28.0036 7.58776C28.0111 7.58503 28.0179 7.58299 28.0247 7.58095ZM41.1306 1.86401C41.132 1.86265 41.1306 1.86265 41.1306 1.86401V1.86401ZM40.6457 2.03632C40.6498 2.01453 40.6205 2.02134 40.6457 2.03632V2.03632ZM40.2282 2.21749C40.2282 2.21749 40.2289 2.21068 40.2275 2.21068C40.2221 2.20863 40.2248 2.21272 40.2282 2.21749ZM38.7959 4.2144C38.7918 4.21235 38.7864 4.21235 38.7823 4.21099C38.7871 4.21167 38.7918 4.21303 38.7959 4.2144ZM37.6265 1.04332C37.6292 1.02425 37.6319 1.00518 37.6326 0.984062C37.621 1.00586 37.621 1.02493 37.6265 1.04332ZM35.6071 5.42194C35.6146 5.42058 35.6126 5.41649 35.6071 5.41377C35.6071 5.41649 35.6071 5.41922 35.6071 5.42194ZM34.5446 7.00135C34.5446 7.00135 34.5508 6.99863 34.5535 6.99658C34.546 6.99182 34.5426 6.9925 34.5446 7.00135ZM49.8075 3.60007C49.8075 3.60007 49.8061 3.59598 49.8075 3.59939C49.8075 3.59939 49.8075 3.59939 49.8075 3.60007ZM49.8055 3.4407C49.8055 3.4407 49.8123 3.43525 49.8061 3.4332C49.8041 3.43525 49.8055 3.43797 49.8055 3.4407ZM47.6819 2.97757C47.7071 2.94692 47.6526 2.97757 47.641 2.98846C47.6546 2.98642 47.6683 2.98301 47.6819 2.97757ZM44.4161 4.66322C44.4161 4.66322 44.4195 4.66254 44.4209 4.66186C44.4168 4.65641 44.4148 4.65573 44.4161 4.66322ZM43.9074 6.12072C43.8958 6.13843 43.8828 6.1575 43.8672 6.17725C43.8856 6.16022 43.8992 6.14116 43.9074 6.12072ZM41.841 5.85238C41.8349 5.83876 41.8308 5.84216 41.8315 5.8551C41.8349 5.85374 41.8376 5.85306 41.841 5.85238ZM59.6981 10.468C59.6688 10.4776 59.6334 10.4803 59.6075 10.4932C59.6375 10.4878 59.6674 10.4796 59.6981 10.468ZM59.4733 11.9868C59.5046 11.9616 59.504 11.9609 59.4645 11.9691C59.4672 11.9752 59.4706 11.9807 59.4733 11.9868ZM58.3638 10.3216C58.3638 10.3264 58.3666 10.3202 58.3638 10.3189C58.3652 10.3127 58.3509 10.3379 58.3638 10.3216ZM58.3468 10.4885C58.3468 10.4885 58.3448 10.4837 58.3434 10.483C58.3448 10.485 58.3455 10.4864 58.3468 10.4885ZM58.1943 10.2099C58.1888 10.2058 58.1806 10.2133 58.1738 10.2153C58.1806 10.2133 58.1874 10.2119 58.1943 10.2099ZM56.6462 12.9982C56.6475 12.9968 56.6462 12.9975 56.6462 12.9982V12.9982ZM55.9351 8.76738C55.9399 8.76738 55.9447 8.76329 55.9494 8.76125C55.9433 8.76125 55.931 8.75784 55.9351 8.76738ZM55.7308 12.2674C55.7356 12.2613 55.7308 12.2613 55.7254 12.262C55.7274 12.264 55.7288 12.2654 55.7308 12.2674ZM55.2663 9.09702C55.2663 9.09702 55.2731 9.1011 55.2759 9.10383C55.269 9.09702 55.2547 9.0834 55.2663 9.09702ZM55.2173 9.10519C55.2118 9.10451 55.2105 9.10928 55.2077 9.11404C55.2112 9.10996 55.2139 9.10791 55.2173 9.10519ZM55.1267 11.1859C55.1267 11.1859 55.126 11.1852 55.1267 11.1859C55.1267 11.1845 55.1267 11.1831 55.1267 11.1859ZM54.5389 10.2807C54.5376 10.2773 54.5355 10.2726 54.5355 10.2726C54.5294 10.2746 54.5355 10.2787 54.5389 10.2807ZM53.0249 8.88316C53.0229 8.89474 53.0406 8.87022 53.0249 8.88316C53.0249 8.88248 53.0249 8.88316 53.0249 8.88316ZM52.7075 10.5463C52.7075 10.5463 52.7096 10.5429 52.7109 10.5416C52.7096 10.5436 52.7048 10.545 52.7075 10.5463ZM50.885 10.0805C50.87 10.0655 50.8557 10.0492 50.8414 10.0335C50.8312 10.071 50.8502 10.0853 50.885 10.0805ZM50.6629 11.0285C50.6595 11.0054 50.6527 11.0558 50.65 11.068C50.6541 11.0537 50.6589 11.0422 50.6629 11.0285ZM49.2844 8.92607C49.2851 8.92062 49.2844 8.92334 49.2844 8.92607C49.2899 8.9247 49.2872 8.9213 49.2844 8.92607ZM48.8608 8.42956C48.8608 8.42956 48.8601 8.42956 48.8608 8.42956V8.42956ZM45.373 7.9712C45.373 7.9712 45.3717 7.9678 45.371 7.96575C45.3655 7.97188 45.3635 7.97393 45.373 7.9712ZM40.9529 8.09992C40.9345 8.10197 40.91 8.08971 40.8963 8.10197C40.9154 8.10469 40.9345 8.10401 40.9529 8.09992ZM45.4112 12.0454C45.4112 12.0454 45.4132 12.0481 45.4125 12.0454C45.4125 12.0427 45.4112 12.0433 45.4112 12.0454ZM45.0815 11.8942C45.0836 11.8894 45.0863 11.8847 45.0897 11.8806C45.0809 11.8799 45.0761 11.8874 45.0815 11.8942ZM45.0019 12.1469C45.0209 12.1305 45.0209 12.1278 44.9957 12.1326C44.9978 12.1373 44.9998 12.1421 45.0019 12.1469ZM44.645 12.7973C44.6497 12.785 44.6477 12.7844 44.6354 12.7884C44.6388 12.7912 44.6416 12.7946 44.645 12.7973ZM43.9169 12.4745C43.9169 12.4745 43.9196 12.4779 43.9217 12.4772C43.9196 12.4758 43.9155 12.469 43.9169 12.4745ZM42.8238 11.7355C42.8319 11.7437 42.8238 11.7287 42.8224 11.7232C42.8211 11.7266 42.8204 11.7307 42.8238 11.7355ZM39.0309 7.12394C39.0486 7.11305 39.0642 7.09874 39.0799 7.08512C39.0636 7.09874 39.0465 7.111 39.0309 7.12394ZM32.9863 8.77691C32.9863 8.77691 32.9857 8.77623 32.9863 8.77691C32.9979 8.78032 32.9836 8.76057 32.9863 8.77691ZM32.9026 9.10928C32.9026 9.10928 32.9053 9.10655 32.9073 9.10587C32.9019 9.10178 32.9019 9.10451 32.9026 9.10928ZM36.1118 13.3142C36.1785 13.3142 36.1744 13.2809 36.1458 13.2379C36.1315 13.2631 36.1179 13.289 36.1118 13.3142ZM35.206 13.0718C35.206 13.0554 35.1998 13.0629 35.1923 13.0731C35.1971 13.0724 35.2012 13.0731 35.206 13.0718ZM31.1774 10.7915V10.7902C31.1774 10.7902 31.176 10.7915 31.1774 10.7915ZM27.9198 10.0015C27.9198 10.0015 27.9219 9.9974 27.9219 9.99535C27.9137 9.99467 27.9157 9.99672 27.9198 10.0015ZM29.8847 17.0894C29.8847 17.0806 29.8902 17.0683 29.8779 17.0731C29.8806 17.0785 29.882 17.084 29.8847 17.0894ZM28.261 16.0474C28.291 16.0249 28.3128 15.997 28.3292 15.9663C28.3149 15.9745 28.2488 16.0188 28.261 16.0474ZM26.0278 12.8354C26.0237 12.8327 26.0196 12.8293 26.0155 12.8266C25.9876 12.8361 26.0101 12.8395 26.0278 12.8354ZM23.6413 15.0476C23.6413 15.0476 23.64 15.0455 23.6393 15.0442C23.6393 15.0462 23.6386 15.0482 23.6413 15.0476ZM21.4265 13.1862C21.5259 13.0459 21.4033 13.1562 21.3114 13.1712C21.3515 13.1678 21.3911 13.1671 21.4265 13.1862ZM20.0548 13.9687C20.065 13.9088 20.0316 13.8407 20.0412 13.7917C20.0214 13.8455 20.0207 13.9034 20.0548 13.9687ZM19.4405 9.9218C19.4439 9.92725 19.4473 9.93269 19.4514 9.93746C19.4473 9.93201 19.4432 9.92452 19.4405 9.9218ZM19.4193 14.596C19.4193 14.596 19.4173 14.5906 19.4146 14.5926C19.4159 14.594 19.4173 14.5953 19.4193 14.596ZM14.8262 18.4155C14.8262 18.4393 14.8752 18.3971 14.8936 18.3903C14.8739 18.4012 14.8514 18.4093 14.8262 18.4155ZM17.3053 19.5086C17.293 19.4814 17.2658 19.5031 17.2488 19.51C17.2685 19.5086 17.2992 19.51 17.3053 19.5086ZM19.388 17.812C19.3812 17.8086 19.3812 17.8209 19.3778 17.8257C19.3812 17.8209 19.3873 17.8168 19.388 17.812ZM20.0432 18.9862C20.0391 18.9862 20.0364 18.9862 20.0323 18.9855C20.0364 18.9896 20.0398 18.9923 20.0432 18.9862ZM20.3075 20.475C20.3075 20.475 20.3054 20.4757 20.3075 20.475V20.475ZM20.3102 20.6399C20.3054 20.6385 20.3 20.6378 20.2938 20.6371C20.2993 20.6446 20.3041 20.6508 20.3102 20.6399ZM20.4396 18.7138C20.4396 18.722 20.4362 18.7294 20.4464 18.7267C20.445 18.7226 20.443 18.7186 20.4396 18.7138ZM20.4307 19.9622C20.4689 19.9601 20.5016 19.9458 20.5145 19.9132C20.4879 19.9309 20.46 19.9472 20.4307 19.9622ZM22.1293 19.7041C22.1293 19.7041 22.1293 19.7054 22.1293 19.7041V19.7041ZM22.8506 17.7855C22.8431 17.7841 22.852 17.7896 22.854 17.7937C22.8567 17.7902 22.8526 17.7882 22.8506 17.7855Z" fill="white"/>
    <path d="M0.00395012 36.1526C0.070015 36.0185 0.0686512 35.9633 0.108835 35.8169C0.375135 35.178 0.819878 34.4908 1.42195 34.0182C1.58472 33.8132 1.71209 33.6068 1.96204 33.461C2.0751 33.3759 2.1793 33.378 2.24673 33.2506C2.40065 33.2016 2.35502 33.1409 2.45718 33.0844C3.27106 32.4217 4.06452 31.9177 5.07455 31.4961C6.42307 30.6448 8.12712 30.2328 9.56623 29.6246C9.77736 29.1069 9.86114 28.4756 10.0941 27.883C10.218 27.108 10.5116 26.3295 10.7956 25.6287C11.6387 23.375 11.367 24.0357 9.87884 25.3651C8.08626 26.9037 6.14452 28.8359 3.53805 28.9639C2.63222 28.9135 1.65624 28.4238 1.27007 27.548C0.714994 26.5011 1.70732 25.6239 2.54844 25.1608C5.67798 23.3335 9.40618 22.5639 12.7339 21.9958C13.5553 21.8351 13.2536 23.0631 13.5321 23.5501C13.6445 23.8034 13.7651 24.0575 13.8515 24.3203C15.0843 26.3506 16.6385 28.1133 17.7963 30.1762C19.4507 34.6018 13.291 35.6207 12.3396 27.7046C12.1598 26.7531 12.1666 25.7976 12.093 24.8461C12.2013 24.6874 12.0283 24.5124 12.0774 24.3258C11.4079 25.9468 10.7942 27.5425 10.5599 29.2724C10.9556 31.1883 11.7109 33.0551 13.0016 34.3396C13.2365 34.4636 13.3918 34.6999 13.6363 34.8055C13.7991 34.9219 14.0838 35.0997 14.2697 35.2591C14.3753 35.2604 14.3855 35.4396 14.5108 35.4368C14.5762 35.4293 14.5987 35.5349 14.6552 35.5485C19.7721 38.8436 17.4292 45.6577 12.6958 39.81C11.6326 38.313 10.7533 36.5545 10.2146 34.7217C9.63774 32.0138 9.66567 32.639 9.58462 34.9642C9.55261 35.1399 9.58462 35.3129 9.52468 35.4484C9.57372 35.6398 9.58326 35.8673 9.56827 36.045C9.54103 36.1908 9.59211 36.3808 9.56827 36.4932C9.53422 39.0268 9.84683 39.1344 11.5148 40.9297C12.031 41.416 12.6549 41.9738 13.2577 42.3865C13.3516 42.4437 13.5348 42.5745 13.6452 42.6712C13.8325 42.7924 14.0865 42.9804 14.2759 43.1303C14.726 43.4252 15.1068 43.7997 15.4637 44.1001C15.6189 44.1818 15.762 44.4086 15.9118 44.5448C16.7475 45.232 17.3468 47.2433 15.8798 47.5858C15.8382 47.545 15.6387 47.6594 15.6312 47.5892C14.6661 47.4231 13.778 46.5956 12.9682 45.8736C12.3212 45.2225 11.7007 44.4447 11.2056 43.7024C10.7295 43.0867 9.86386 40.9767 10.3052 42.8245C10.3985 43.5423 10.515 44.1628 10.5803 44.8629C10.799 45.7939 10.8562 47.9325 11.51 48.5305C13.763 50.1045 16.4641 51.3747 19.1489 52.2049C19.2259 52.209 19.326 52.3139 19.3941 52.3745C19.4404 52.3745 19.482 52.4725 19.5331 52.4984C20.7583 53.6372 20.6698 56.2341 18.5128 55.7601C17.8154 55.6668 17.1752 55.2976 16.522 55.0286L16.5254 55.0307C15.967 54.7426 15.574 54.2753 15.1197 53.9709C15.0788 53.9818 15.0278 53.8735 14.9815 53.8483C14.1628 53.1706 13.5001 52.2757 12.7121 51.5402C11.8022 50.4232 12.014 50.8618 12.4104 51.9433C13.2325 53.9048 14.0511 55.7322 15.2838 57.3191C16.1222 57.7046 16.8653 58.1977 17.6758 58.6083L17.6717 58.6063C17.8025 58.6553 17.9121 58.7459 18.0293 58.8215C18.2458 58.9264 18.4147 59.0987 18.6306 59.2111C20.0888 60.2579 21.4687 61.3933 22.4991 62.8691C23.0229 63.6265 23.4295 64.501 23.6229 65.4463C23.6141 65.6459 23.7482 65.9251 23.7108 66.1233C23.7339 66.6477 23.753 67.2662 23.5262 67.8349C23.0964 69.7834 20.4273 68.4669 19.5208 67.5788C15.6755 64.4976 15.6966 59.1464 13.2086 55.2731C12.4656 54.3952 11.3684 50.586 11.9418 54.3312C12.4342 56.386 15.1899 65.6479 10.3188 62.171C8.86132 59.7103 9.82504 56.5168 10.2337 53.8681C10.769 51.8562 10.9883 50.0997 10.2602 48.1123C10.1308 47.6553 10.0062 47.1983 9.98305 46.7202C9.84139 46.4852 9.89451 45.6421 9.571 46.2686C9.56078 46.2986 9.55057 46.3286 9.54035 46.3585C8.14347 49.0304 9.7113 53.456 6.73296 55.1812C2.34139 55.2711 5.24754 50.0207 6.83921 48.2213C7.91326 46.4512 10.0764 45.3049 9.39665 43.0145C9.24681 41.8859 9.16031 40.754 9.09697 39.6166C8.96552 35.2169 7.2281 43.1432 5.95381 44.4733C5.76856 44.8295 5.57854 45.1816 5.28909 45.4684C2.96322 48.9269 -0.455772 46.4934 1.9382 43.3891C2.51099 42.266 3.536 41.2416 4.30221 40.3079C4.60801 40.0123 4.88657 39.7514 5.19986 39.4143L5.19714 39.4198C6.01988 38.6747 6.93865 37.8574 7.86287 37.1988C9.05747 36.2943 8.98323 36.784 8.95463 35.1385L8.95327 35.1447C9.01388 34.9288 8.87698 34.6032 8.97982 34.3233C8.89673 33.8275 9.06019 33.2322 9.08539 32.7711C9.01797 32.5075 9.12898 32.1711 9.18687 31.9177C9.26179 31.1978 9.77259 29.9617 8.86064 31.0834C8.30897 32.0437 7.50462 33.0006 6.87463 33.9936C5.53904 35.5084 4.32128 37.841 2.01652 38.0072C1.61946 38.1148 1.20536 37.918 0.854612 37.7232C0.296812 37.414 -0.0280571 36.8589 0.00190926 36.152L0.00395012 36.1526ZM2.28555 27.4111C2.27738 27.4063 2.26852 27.4008 2.26035 27.3968C2.26716 27.4049 2.28895 27.4281 2.28555 27.4111ZM2.93802 26.2641C2.91691 26.2791 2.90601 26.2948 2.90328 26.3104C2.91146 26.305 2.9782 26.2669 2.93802 26.2641ZM3.6116 28.0472C3.6116 28.0472 3.61364 28.052 3.61433 28.054C3.61841 28.0506 3.61433 28.0492 3.6116 28.0472ZM3.83772 25.1833C3.88403 25.1914 3.93171 25.2044 3.97938 25.2221C3.95622 25.1696 3.8888 25.1635 3.83772 25.1833ZM5.12699 26.008C5.12699 26.008 5.12358 26.0128 5.12767 26.0121C5.12767 26.0108 5.12631 26.0094 5.12699 26.008ZM5.43892 24.5431C5.43892 24.5444 5.4396 24.5431 5.43892 24.5431V24.5431ZM5.55811 26.6449C5.55675 26.6414 5.55402 26.6537 5.54926 26.6605C5.5513 26.6551 5.56628 26.6449 5.55811 26.6449ZM6.18266 24.8584C6.17517 24.8707 6.17516 24.8727 6.18947 24.8672C6.18742 24.8645 6.1847 24.8618 6.18266 24.8584ZM7.4944 23.3668C7.46648 23.3737 7.491 23.4166 7.4944 23.4336C7.49372 23.4125 7.49304 23.39 7.4944 23.3668ZM10.3474 22.9425C10.3474 22.9425 10.3467 22.9425 10.3474 22.9425C10.3447 22.9419 10.3413 22.9398 10.3474 22.9425ZM10.5436 22.9759C10.5524 23.0038 10.5742 23.0338 10.5933 23.0515C10.5776 23.0256 10.5606 23.0004 10.5436 22.9759ZM16.2244 28.4769C16.2326 28.4674 16.2244 28.4654 16.2162 28.4633C16.219 28.4681 16.2217 28.4729 16.2244 28.4769ZM16.0712 28.5369C16.0712 28.5369 16.0712 28.5362 16.0712 28.5355C16.0712 28.5355 16.0705 28.5369 16.0712 28.5369ZM16.0528 30.5147C16.0528 30.5147 16.0528 30.5147 16.0528 30.5134C16.0528 30.5134 16.0521 30.5147 16.0528 30.5147ZM15.6435 28.8461C15.6407 28.8795 15.636 28.9115 15.6298 28.9421C15.655 28.9169 15.6564 28.8815 15.6435 28.8461ZM14.5932 28.8597C14.5987 28.8502 14.5823 28.8468 14.5932 28.8597V28.8597ZM14.5531 31.9123C14.5531 31.9123 14.5599 31.9164 14.5619 31.9123C14.5578 31.9123 14.5496 31.9062 14.5531 31.9123ZM14.5067 29.331C14.5054 29.3208 14.4999 29.3276 14.4924 29.3296C14.4979 29.331 14.5027 29.331 14.5067 29.331ZM14.013 26.1232C14.0191 26.1259 14.0395 26.1306 14.0327 26.1293C14.0184 26.0871 14.0068 26.0578 14.013 26.1232ZM13.2577 28.701C13.2617 28.699 13.2631 28.6908 13.2665 28.6867C13.2631 28.6915 13.2522 28.6969 13.2577 28.701ZM12.7972 22.6333C12.8081 22.6245 12.7727 22.6388 12.7632 22.6381C12.7748 22.6374 12.7864 22.6354 12.7972 22.6333ZM12.0794 24.3251C12.0835 24.2992 12.0862 24.274 12.0869 24.2488C12.0671 24.2625 12.0882 24.304 12.0794 24.3251ZM11.7681 24.0704C11.7872 24.0738 11.7722 24.0622 11.7586 24.0588C11.7634 24.0629 11.7661 24.067 11.7681 24.0704ZM16.5711 38.6903C16.5765 38.6876 16.5813 38.6849 16.5867 38.6822C16.5779 38.6822 16.5656 38.6788 16.5711 38.6903ZM15.0046 37.5781C14.974 37.5781 14.9583 37.6558 14.9562 37.6721C14.978 37.6449 14.9951 37.6142 15.0046 37.5781ZM12.3205 33.6878C12.3205 33.6878 12.3191 33.6878 12.3205 33.6878C12.3205 33.6851 12.3185 33.6865 12.3205 33.6878ZM11.1715 36.7288C11.1756 36.7309 11.1804 36.7336 11.1845 36.737C11.1817 36.7193 11.1695 36.6996 11.1715 36.7288ZM10.295 29.9556C10.295 29.9556 10.2923 29.9535 10.2902 29.9528C10.2895 29.9556 10.2929 29.9549 10.295 29.9556ZM9.95172 30.7926C9.92379 30.7545 9.81619 30.8076 9.78758 30.8375C9.83253 30.8171 9.88429 30.8042 9.95172 30.7926ZM9.69972 32.2773C9.70653 32.3277 9.69972 32.3788 9.70381 32.4292C9.77123 32.3802 9.70176 32.2337 9.69972 32.2773ZM15.4766 45.9397C15.4766 45.9206 15.4739 45.9009 15.4677 45.8784C15.4207 45.9165 15.3874 45.954 15.4766 45.9397ZM14.8984 45.1326C14.897 45.1278 14.895 45.1244 14.8943 45.1197C14.8881 45.1306 14.8827 45.1387 14.8984 45.1326ZM11.256 42.2762C11.256 42.2748 11.2553 42.2741 11.256 42.2762V42.2762ZM18.2309 53.9723C18.2424 53.9655 18.2411 53.9641 18.2295 53.96C18.2295 53.9641 18.2309 53.9682 18.2309 53.9723ZM17.8406 54.9598C17.8406 54.9598 17.8386 54.9591 17.8372 54.9598C17.8352 54.9632 17.8386 54.9605 17.8406 54.9598ZM17.7657 54.5641C17.7725 54.5512 17.7813 54.5382 17.7602 54.5416C17.763 54.5498 17.7643 54.5566 17.7657 54.5641ZM17.6697 53.4179C17.6697 53.4179 17.6649 53.4138 17.6622 53.4152C17.6649 53.4158 17.6669 53.4172 17.6697 53.4179ZM17.5627 54.7249C17.5668 54.718 17.5777 54.7106 17.5648 54.7119C17.5607 54.716 17.56 54.7201 17.5627 54.7249ZM16.5704 52.6884C16.5656 52.6844 16.5568 52.6844 16.5534 52.6884C16.5588 52.6884 16.5643 52.6884 16.5704 52.6884ZM23.1278 68.0194C23.1325 68.0017 23.1503 67.9779 23.1203 67.982C23.1223 67.9942 23.1257 68.0072 23.1278 68.0194ZM22.9977 64.9859C22.9984 64.9852 22.9977 64.9846 22.9977 64.9859V64.9859ZM21.97 64.4213C21.9754 64.4165 21.972 64.4152 21.9665 64.4138C21.9672 64.4165 21.9693 64.4186 21.97 64.4213ZM21.8215 68.77C21.8201 68.7373 21.816 68.7066 21.8099 68.6767C21.8085 68.7053 21.8188 68.7393 21.8215 68.77ZM21.3257 67.5141C21.3257 67.5141 21.3209 67.5127 21.3188 67.5134C21.3209 67.5134 21.3229 67.5134 21.3257 67.5141ZM21.1765 67.5951H21.1745C21.1894 67.5931 21.1704 67.5829 21.1765 67.5951ZM21.0076 67.478C21.013 67.478 21.0069 67.4644 21.0076 67.4575C21.0076 67.4644 21.0076 67.4712 21.0076 67.478ZM20.7413 64.2715C20.7413 64.2715 20.7427 64.2715 20.7433 64.2715C20.742 64.2715 20.7399 64.2694 20.7413 64.2715ZM19.6734 64.0726H19.6822C19.6822 64.0726 19.6727 64.0665 19.6734 64.0726ZM19.2307 62.2787C19.2307 62.2787 19.2293 62.28 19.2307 62.2787C19.2279 62.2766 19.2286 62.2814 19.2307 62.2787ZM18.8976 60.2041C18.9085 60.1952 18.9174 60.1864 18.929 60.1775C18.9187 60.1843 18.8745 60.2102 18.8976 60.2041ZM18.8745 65.2025C18.8683 65.1984 18.8629 65.1943 18.8554 65.1936C18.8608 65.1971 18.8677 65.1998 18.8745 65.2025ZM18.854 65.148C18.8554 65.1439 18.8561 65.1405 18.8588 65.1358C18.8554 65.1398 18.8513 65.1426 18.854 65.148ZM18.8152 65.9551C18.8152 65.9503 18.8173 65.9449 18.8152 65.9401C18.805 65.9381 18.8125 65.9496 18.8152 65.9551ZM18.1055 60.7714C18.096 60.7374 18.0763 60.7258 18.0449 60.749C18.0654 60.7558 18.0851 60.7633 18.1055 60.7714ZM17.8181 63.2042C17.8181 63.2042 17.8134 63.2063 17.8134 63.2056C17.8106 63.2185 17.814 63.2117 17.8181 63.2042ZM16.4281 59.7348C16.4281 59.7348 16.4281 59.7321 16.4281 59.7308C16.4233 59.7335 16.4199 59.7355 16.4281 59.7348ZM15.8083 59.5285C15.8083 59.5278 15.8083 59.5285 15.8083 59.5285V59.5285ZM14.0559 56.4779C14.0545 56.4684 14.0531 56.4711 14.0497 56.4779C14.0518 56.4779 14.0538 56.4779 14.0559 56.4779ZM12.4908 52.3418C12.4874 52.3234 12.4812 52.305 12.471 52.2887C12.4649 52.3057 12.4853 52.3241 12.4908 52.3418ZM11.8226 55.7676C11.8097 55.7894 11.7974 55.8091 11.7852 55.8262C11.8008 55.8112 11.8138 55.7914 11.8226 55.7676ZM11.7021 62.2432C11.7021 62.2432 11.7014 62.2432 11.7021 62.2432C11.7034 62.2412 11.7014 62.2419 11.7021 62.2432ZM11.5516 62.3073C11.5543 62.3025 11.5556 62.2998 11.5488 62.3032C11.5468 62.3052 11.5502 62.3059 11.5516 62.3073ZM10.312 60.4724C10.3066 60.4902 10.3052 60.5092 10.3079 60.529C10.3236 60.5133 10.3161 60.4915 10.312 60.4724ZM10.6321 56.8525C10.6253 56.8546 10.6267 56.8553 10.6328 56.8573C10.6328 56.8559 10.6328 56.8539 10.6321 56.8525ZM10.7493 54.0084C10.7445 54.0097 10.7404 54.0125 10.7377 54.0165C10.7465 54.0186 10.7527 54.0206 10.7493 54.0084ZM10.8562 50.9374C10.8501 50.9572 10.8446 50.9769 10.8392 50.9973C10.846 50.9776 10.8535 50.9578 10.8562 50.9374ZM10.3556 44.5203C10.3583 44.5142 10.3556 44.5149 10.3508 44.5169C10.3522 44.5183 10.3542 44.5196 10.3556 44.5203ZM10.0838 44.724C10.0764 44.7226 10.0804 44.724 10.0838 44.724C10.0825 44.7172 10.077 44.7172 10.0838 44.724ZM4.64547 51.9815C4.66454 51.9726 4.68157 51.9631 4.69791 51.9536C4.67884 51.9549 4.66114 51.9624 4.64547 51.9815ZM6.74931 54.3591C6.75203 54.3707 6.75612 54.3734 6.76633 54.3673C6.76089 54.3652 6.75476 54.3625 6.74931 54.3591ZM6.76633 53.9103C6.76633 53.9103 6.76974 53.9144 6.76838 53.9151C6.77587 53.9123 6.77451 53.9123 6.76633 53.9103ZM6.79086 54.8808C6.79086 54.8822 6.79154 54.8835 6.79086 54.8808V54.8808ZM7.97797 48.4195C7.96979 48.4195 7.96979 48.4229 7.9766 48.4263C7.9766 48.4236 7.97797 48.4215 7.97797 48.4195ZM8.06787 51.816C8.07059 51.8201 8.07264 51.8248 8.07604 51.8276C8.07332 51.8235 8.07059 51.8201 8.06787 51.816ZM9.02546 46.838C9.02546 46.838 9.03023 46.8428 9.03295 46.8455C9.03567 46.836 9.03295 46.8339 9.02546 46.838ZM1.94161 43.3918L1.96613 43.4047C1.97906 43.3952 1.9491 43.3959 1.94161 43.3918ZM2.53687 42.8027C2.52393 42.8183 2.54368 42.8054 2.55117 42.8047C2.54504 42.8013 2.53823 42.8006 2.53687 42.8027ZM2.81066 45.5787C2.80317 45.5773 2.79499 45.5746 2.78614 45.5705C2.79499 45.5991 2.8236 45.6005 2.81066 45.5787ZM2.88285 45.5249C2.88285 45.5249 2.87945 45.531 2.87808 45.5344C2.88081 45.5324 2.88694 45.527 2.88285 45.5249ZM4.12377 44.5796C4.12377 44.5796 4.12309 44.5843 4.12241 44.5871C4.13262 44.5959 4.12717 44.5857 4.12377 44.5796ZM5.4757 42.6542C5.46753 42.661 5.46004 42.6685 5.45391 42.6753C5.4723 42.6671 5.51044 42.6685 5.4757 42.6542ZM7.08508 40.5626C7.0701 40.5708 7.07077 40.5776 7.08712 40.5844C7.08644 40.5776 7.08576 40.5708 7.08508 40.5626ZM9.27746 39.5655C9.27746 39.5655 9.27882 39.5696 9.28018 39.5716C9.28631 39.5669 9.28427 39.5669 9.27746 39.5655ZM7.52233 30.4514C7.52097 30.448 7.52233 30.4493 7.52233 30.4514C7.52233 30.4493 7.52369 30.4432 7.52233 30.4514ZM6.96725 32.7446C6.96112 32.7371 6.95499 32.7296 6.95022 32.7214C6.95295 32.7303 6.9584 32.7384 6.96725 32.7446ZM6.00013 31.7618C5.994 31.7604 5.98719 31.7577 5.98038 31.7577C5.98719 31.7584 5.99331 31.7604 6.00013 31.7618ZM5.1808 34.2259C5.16854 34.2191 5.159 34.2191 5.15968 34.2354C5.16718 34.232 5.17398 34.2293 5.1808 34.2259ZM5.05412 33.7348C5.09158 33.7348 5.04935 33.7083 5.03641 33.696C5.04254 33.709 5.04867 33.7219 5.05412 33.7348ZM4.57941 33.839C4.58894 33.837 4.58145 33.8315 4.57805 33.8268C4.57805 33.8309 4.57873 33.835 4.57941 33.839ZM3.9283 36.2603C3.92966 36.2548 3.9392 36.2439 3.92898 36.2466C3.92898 36.2521 3.92149 36.2582 3.9283 36.2603ZM2.67308 37.4092C2.65946 37.4045 2.65741 37.4215 2.64584 37.4453C2.65469 37.4331 2.66491 37.4215 2.67308 37.4092ZM2.54232 37.5311C2.54232 37.5311 2.54232 37.5325 2.54232 37.5332V37.5311ZM2.48442 37.1974C2.48374 37.1913 2.4817 37.1852 2.47965 37.179C2.48102 37.1879 2.47148 37.2117 2.48442 37.1974ZM1.70732 36.0587C1.69165 36.0546 1.67871 36.0491 1.67463 36.0682C1.68484 36.0648 1.69506 36.0614 1.70732 36.0587ZM1.10389 35.6745C1.10389 35.6732 1.10253 35.6739 1.10389 35.6745V35.6745Z" fill="white"/>
</svg>
