<?xml version="1.0" encoding="utf-8"?>
<!-- Generator: Adobe Illustrator 26.5.0, SVG Export Plug-In . SVG Version: 6.00 Build 0)  -->
<svg version="1.1" id="Warstwa_1" xmlns="http://www.w3.org/2000/svg" xmlns:xlink="http://www.w3.org/1999/xlink" x="0px" y="0px"
	 viewBox="0 0 89 30" style="enable-background:new 0 0 89 30;" xml:space="preserve">
<style type="text/css">
	.st0{fill:#571B33;}
</style>
<path class="st0" d="M45.1,13.4c0.7-0.8,1-2,1.3-3c0.6-1.9,1-4,0.8-6.1c0-1.5-0.4-3.1-1.8-4c-1-0.6-2.8-0.3-3.3,0.8
	c-1.1,1.5-0.5,4.2,0,5.9c0.2,1.2,0.8,2.4,1.3,3.7C43.8,11.4,44.2,13.5,45.1,13.4L45.1,13.4z M47.1,4.9C47.1,4.9,47.1,5,47.1,4.9
	C47.1,5,47.1,4.9,47.1,4.9z M45.7,5C45.7,5,45.7,5,45.7,5C45.7,5,45.7,5,45.7,5z M45.5,7.2C45.5,7.2,45.5,7.2,45.5,7.2L45.5,7.2z
	 M45,12.4C45,12.4,45,12.4,45,12.4C45,12.4,45,12.4,45,12.4z M43.5,8.9C43.5,8.9,43.5,8.8,43.5,8.9C43.6,8.8,43.6,8.9,43.5,8.9z
	 M43.9,9c-0.1,0-0.2,0.1-0.2,0.1C43.7,9.1,43.9,9,43.9,9z M43.9,4.3C43.9,4.3,43.9,4.3,43.9,4.3C44,4.3,43.9,4.3,43.9,4.3z
	 M44.1,4.3C44.1,4.3,44,4.3,44.1,4.3C44,4.3,44.1,4.2,44.1,4.3z M44.2,3.3c0,0,0-0.1,0-0.1C44.2,3.2,44.2,3.3,44.2,3.3z M44.6,2.2
	c0.1,0,0.1,0,0.2,0.1C44.7,2.2,44.7,2.2,44.6,2.2z M44.8,10.8C44.8,10.8,44.8,10.8,44.8,10.8C44.8,10.8,44.8,10.8,44.8,10.8z
	 M44.8,11.2C44.8,11.2,44.8,11.2,44.8,11.2C44.8,11.1,44.8,11.2,44.8,11.2z"/>
<path class="st0" d="M46.3,18.3c1.9-1.9,4.5-2.7,6.4-4.8c1.1-1.2,1.1-3.2-0.3-4c-1.5-0.7-2.9,0-4,1c-1.4,1.4-2.1,3.2-2.7,5
	c-0.2,0.9-0.5,1.6-0.6,2.5C44.4,19.6,45.6,18.8,46.3,18.3z M52.7,12.8C52.8,12.9,52.7,12.8,52.7,12.8C52.7,12.8,52.7,12.8,52.7,12.8
	z M52.1,12.9C52.1,12.9,52.1,12.9,52.1,12.9C52.1,12.9,52.1,12.9,52.1,12.9z M51.6,10.1C51.6,10.2,51.6,10.2,51.6,10.1
	C51.6,10.2,51.6,10.1,51.6,10.1z M50.7,11.5C50.7,11.5,50.7,11.5,50.7,11.5C50.7,11.5,50.7,11.5,50.7,11.5z M50.3,13.7
	C50.3,13.7,50.3,13.7,50.3,13.7C50.3,13.7,50.3,13.7,50.3,13.7z M48.1,13.5C48.1,13.5,48.1,13.5,48.1,13.5
	C48.1,13.5,48.1,13.5,48.1,13.5z M47.7,13.1C47.8,13.1,47.8,13.2,47.7,13.1C47.8,13.2,47.7,13.2,47.7,13.1z"/>
<path class="st0" d="M44.1,18.6c0.2-0.2-0.1-0.5-0.1-0.6c0-0.4-0.1-0.7-0.3-1c0-0.8-0.4-1.8-0.7-2.6c-0.5-1.6-1.3-3.4-2.7-4.5
	c-2.5-2.6-6.2,0-3.8,3.1c1.2,1.6,2.9,2.5,4.5,3.7C41.4,16.8,44.4,20.3,44.1,18.6z M38,9.7C38,9.7,38,9.7,38,9.7
	C38,9.7,38,9.7,38,9.7z M38.2,11.4L38.2,11.4C38.2,11.4,38.2,11.4,38.2,11.4z M38.3,11.1c0-0.1,0.1,0,0.1,0
	C38.4,11.1,38.3,11.1,38.3,11.1z M38.7,13C38.7,13,38.7,13,38.7,13C38.7,13,38.7,13,38.7,13z M38.9,10.8
	C38.9,10.8,38.9,10.8,38.9,10.8C38.9,10.8,38.9,10.8,38.9,10.8z M40.1,10C40.1,10,40.1,10,40.1,10C40.1,10,40.1,10,40.1,10z
	 M40.4,12.3C40.4,12.3,40.4,12.3,40.4,12.3C40.4,12.3,40.4,12.3,40.4,12.3z M40.8,12.2C40.8,12.2,40.8,12.2,40.8,12.2
	C40.8,12.2,40.8,12.2,40.8,12.2z M43.2,16C43.2,16,43.2,16,43.2,16C43.2,16,43.2,16,43.2,16z M43.4,18.5
	C43.4,18.5,43.4,18.5,43.4,18.5C43.4,18.5,43.4,18.5,43.4,18.5z M43.5,18.5C43.5,18.5,43.5,18.5,43.5,18.5
	C43.5,18.5,43.5,18.5,43.5,18.5z"/>
<path class="st0" d="M76.7,22.5c-0.1-0.5,0-1.1-0.3-1.5c-0.3-0.9-0.7-1.8-1.4-2.4c0-0.6-5.3-4.6-5.3-3.6c0.4,0.8,0.8,1.6,1.2,2.4
	c0.3,0.8,0.7,1.6,0.9,2.4c0.2,1,0.1,2.1,0.7,3.3C73.7,25.7,76.8,25.7,76.7,22.5z M70.6,16.3C70.6,16.3,70.6,16.3,70.6,16.3
	C70.7,16.3,70.7,16.3,70.6,16.3z M72.5,20C72.5,20,72.5,20,72.5,20C72.5,20,72.5,20,72.5,20z M73.9,21.5
	C73.9,21.5,73.9,21.5,73.9,21.5C73.9,21.5,73.9,21.5,73.9,21.5z M73.9,23.6C73.9,23.6,73.9,23.6,73.9,23.6
	C73.9,23.6,73.9,23.6,73.9,23.6z M74.2,23.7C74.2,23.7,74.2,23.7,74.2,23.7C74.2,23.7,74.2,23.7,74.2,23.7z M74.2,23.7
	C74.2,23.7,74.2,23.7,74.2,23.7C74.2,23.7,74.2,23.7,74.2,23.7z M76.1,23.5C76.1,23.5,76.1,23.5,76.1,23.5
	C76.1,23.5,76.1,23.5,76.1,23.5z"/>
<path class="st0" d="M88.9,21.7c0-4-5.7-5.6-9.1-6.3c-1.2-0.3-2.5-0.3-3.7-0.6c-2.5-0.4-1,0.5-0.1,1.7c0,0.1,0.1,0.2,0.2,0.3
	c1.2,1.4,2.6,2.8,4.1,3.9c1.3,1.1,2.9,2.4,4.7,2.8C86.5,24.3,89.1,23.6,88.9,21.7L88.9,21.7z M76.7,15.9
	C76.7,15.9,76.7,15.9,76.7,15.9C76.7,15.9,76.7,15.9,76.7,15.9z M79,18.8C79,18.8,79,18.7,79,18.8C79,18.8,79,18.7,79,18.8z
	 M79.1,18.7C79.1,18.7,79.1,18.7,79.1,18.7C79.1,18.7,79.1,18.7,79.1,18.7z M79.1,18C79.1,18,79.1,18,79.1,18
	C79.1,18,79.1,18,79.1,18z M80,18.5C80,18.5,80,18.5,80,18.5C80,18.5,80,18.5,80,18.5z M80.1,18.6C80.1,18.6,80.1,18.5,80.1,18.6
	C80.1,18.6,80.1,18.6,80.1,18.6z M82.1,18.4C82.1,18.4,82.1,18.3,82.1,18.4C82.1,18.4,82.1,18.4,82.1,18.4z M82.3,20.2
	C82.4,20.2,82.4,20.2,82.3,20.2C82.4,20.2,82.4,20.2,82.3,20.2z M82.4,21.3C82.4,21.3,82.4,21.3,82.4,21.3
	C82.4,21.3,82.4,21.3,82.4,21.3z M83.6,20.5c0,0-0.1-0.1-0.1-0.2C83.6,20.4,83.6,20.5,83.6,20.5z M84,20.8c0,0,0-0.1,0-0.1
	C84,20.7,84.1,20.9,84,20.8z M84.8,21.2c0,0,0-0.1,0-0.1C84.8,21.1,84.8,21.2,84.8,21.2z M85.2,22.6C85.2,22.6,85.2,22.6,85.2,22.6
	C85.2,22.6,85.2,22.6,85.2,22.6z M88.2,22.7C88.2,22.7,88.2,22.7,88.2,22.7C88.2,22.7,88.2,22.7,88.2,22.7z M88.2,22.7
	C88.2,22.7,88.2,22.7,88.2,22.7C88.2,22.7,88.2,22.7,88.2,22.7z M88.4,21.8C88.4,21.8,88.4,21.8,88.4,21.8
	C88.4,21.8,88.4,21.8,88.4,21.8z M88.4,21.8C88.4,21.8,88.4,21.8,88.4,21.8C88.4,21.8,88.4,21.8,88.4,21.8z"/>
<path class="st0" d="M88.3,27.4c0.1-1.5-1.6-2.9-3.1-2.8c-1.4,0.1-2.7,1.6-2.4,3.1C83.5,30.9,88.1,30.7,88.3,27.4z M83.7,27.5
	C83.7,27.4,83.7,27.4,83.7,27.5C83.8,27.4,83.8,27.5,83.7,27.5z"/>
<path class="st0" d="M67.4,12.4c0.4-0.2,0.8-0.3,1.1-0.7C71,9.6,74.5,8.2,75.8,5c0.9-2.9-3-2.9-4.1-1.2
	C69.9,5.4,67.3,10.3,67.4,12.4L67.4,12.4z M74.6,6.5C74.6,6.5,74.6,6.5,74.6,6.5C74.6,6.5,74.6,6.5,74.6,6.5z M72.9,6
	C72.9,6,72.9,6,72.9,6C72.9,6,72.9,6,72.9,6z M72.8,8.1C72.7,8.1,72.7,8.1,72.8,8.1C72.8,8.1,72.8,8.1,72.8,8.1z M71.9,8.4
	C71.9,8.4,71.9,8.4,71.9,8.4C71.9,8.4,71.9,8.4,71.9,8.4z M67.6,12.2C67.6,12.2,67.6,12.2,67.6,12.2C67.6,12.1,67.6,12.2,67.6,12.2z
	"/>
<path class="st0" d="M69.6,18.3c0.1-0.1,0-0.3,0-0.4c-0.1-3.6-3.7-6.1-7.2-5.5c-4,0.2-8,2.3-10.7,5.3c-0.3,0.3-0.7,0.7-0.9,1
	c-0.7,0.2-6.3,10.4-4,8.3c1.3-2,2.3-4.3,3.9-6.2c3-3.5,9.3-8.6,13.2-4.1c0.4,0.6-2,0.2-2.5,2.3c-0.7,1.8-0.3,4.5,1.6,5.3
	C66.1,25,70,21.5,69.6,18.3L69.6,18.3z M47.8,23.4C47.8,23.4,47.8,23.5,47.8,23.4C47.8,23.5,47.8,23.4,47.8,23.4z M54.6,15.8
	C54.6,15.8,54.6,15.8,54.6,15.8L54.6,15.8z M61,14.2C61,14.2,61,14.2,61,14.2C61,14.2,61,14.2,61,14.2z M61.8,13.9
	C61.8,13.9,61.8,13.9,61.8,13.9L61.8,13.9z M62.1,14.7C62,14.7,62.1,14.7,62.1,14.7C62.1,14.7,62.1,14.7,62.1,14.7z M62.2,14.8
	C62.2,14.8,62.2,14.8,62.2,14.8C62.2,14.8,62.2,14.8,62.2,14.8z M62.2,21.3C62.2,21.3,62.2,21.3,62.2,21.3
	C62.2,21.3,62.2,21.3,62.2,21.3z M63.4,22.4C63.4,22.4,63.4,22.4,63.4,22.4C63.4,22.4,63.4,22.4,63.4,22.4z M63.9,17.5
	C63.9,17.5,63.9,17.5,63.9,17.5C63.9,17.5,63.9,17.5,63.9,17.5z M64.1,23.9C64.1,23.9,64.1,23.9,64.1,23.9
	C64.1,23.9,64.1,23.9,64.1,23.9z M64.1,23.9C64.1,23.9,64.1,23.8,64.1,23.9C64.1,23.9,64.1,23.9,64.1,23.9z M64.2,17.6
	C64.2,17.6,64.2,17.6,64.2,17.6C64.2,17.6,64.2,17.6,64.2,17.6z M65.2,13C65.2,13,65.2,13,65.2,13C65.2,13,65.2,13,65.2,13z
	 M65.7,16.2C65.7,16.2,65.7,16.2,65.7,16.2C65.7,16.2,65.7,16.2,65.7,16.2z M65.8,18.6C65.8,18.6,65.8,18.6,65.8,18.6
	C65.8,18.6,65.8,18.6,65.8,18.6z M66.4,13.3C66.3,13.3,66.4,13.3,66.4,13.3L66.4,13.3z M66.6,21.8c-0.1-0.2,0,0,0.2,0.1
	C66.6,22,66.6,22,66.6,21.8z M68,20.9C68,20.9,68,20.9,68,20.9C68,20.9,68,20.9,68,20.9z M68.9,19.3C69,19.2,69,19.3,68.9,19.3
	C69,19.3,69,19.3,68.9,19.3z"/>
<path class="st0" d="M75.6,9.7c-1.8,0.9-3.5,1.9-5.1,3.2c-2,1.5,7.4-0.1,7.9,0.2c2-0.1,5.6,0.5,6-2.4c0.3-1.4-2.2-2.2-3.2-2
	C79.3,8.3,77.3,9,75.6,9.7z M73,12.9C73,12.9,73,12.8,73,12.9C73,12.9,73,12.9,73,12.9z M73.2,11.8C73.2,11.8,73.2,11.9,73.2,11.8
	C73.2,11.8,73.2,11.8,73.2,11.8z M75.4,12.1C75.4,12.1,75.4,12.1,75.4,12.1C75.4,12.1,75.4,12.1,75.4,12.1z M75.4,12.1
	C75.4,12.1,75.4,12.1,75.4,12.1C75.4,12.1,75.4,12.1,75.4,12.1z M82.2,9.6C82.2,9.6,82.2,9.6,82.2,9.6C82.2,9.6,82.2,9.6,82.2,9.6z
	 M77.9,10.5C77.9,10.5,77.9,10.5,77.9,10.5C77.9,10.5,77.9,10.5,77.9,10.5z M76.2,10.6C76.1,10.6,76.1,10.5,76.2,10.6
	C76.1,10.5,76.1,10.6,76.2,10.6z"/>
<path class="st0" d="M19.5,14.8c-1.9,0.6-4.2,2.3-5.3,3.8c-0.7,0.6-1.1,1.5-1.4,2.4c-1.3,3.5,2,6,3.9,2c0.7-1.3,0.4-2.3,0.7-3.6
	c0.4-1.1,0.8-2.1,1.4-3.2c0.1-0.2,0.3-0.5,0.4-0.7C19.3,15.3,19.5,15.1,19.5,14.8z M13.1,23.5C13.1,23.5,13.1,23.5,13.1,23.5
	C13.1,23.5,13.1,23.5,13.1,23.5z M15,23.7C15,23.7,15,23.7,15,23.7C15,23.7,15,23.7,15,23.7z M15,23.7C15,23.7,15,23.7,15,23.7
	C15,23.7,15,23.7,15,23.7z M15.3,23.6C15.3,23.6,15.3,23.6,15.3,23.6C15.3,23.6,15.3,23.6,15.3,23.6z M15.3,21.5
	C15.3,21.5,15.3,21.5,15.3,21.5C15.3,21.5,15.3,21.5,15.3,21.5z M16.7,20C16.7,20,16.7,20,16.7,20L16.7,20z M18.5,16.3
	C18.5,16.3,18.5,16.3,18.5,16.3C18.6,16.3,18.6,16.3,18.5,16.3z"/>
<path class="st0" d="M12.8,16.9c0-0.1,0-0.1,0-0.1c0.5-0.5,1-1,1.3-1.6c0.7-0.6-0.5-0.4-0.7-0.4c-1.2,0.2-2.6,0.3-3.9,0.5
	c-3.4,0.7-9.4,2.3-9.4,6.3c-0.2,1.9,2.4,2.6,3.9,1.8C7.8,22.3,10.2,19.5,12.8,16.9L12.8,16.9z M0.8,21.8C0.8,21.8,0.8,21.8,0.8,21.8
	C0.8,21.8,0.8,21.8,0.8,21.8z M0.8,21.8C0.8,21.8,0.8,21.8,0.8,21.8C0.8,21.8,0.8,21.8,0.8,21.8z M1,22.7C1,22.7,1,22.7,1,22.7
	C1,22.7,1,22.7,1,22.7z M1,22.7C1,22.7,1,22.7,1,22.7C1,22.7,1,22.7,1,22.7z M3.9,22.6C3.9,22.6,3.9,22.6,3.9,22.6
	C4,22.6,3.9,22.6,3.9,22.6z M4.4,21.2c0,0,0-0.1,0-0.1C4.4,21.1,4.4,21.2,4.4,21.2z M5.2,20.8c-0.1,0.1,0-0.1,0-0.1
	C5.2,20.7,5.2,20.7,5.2,20.8z M5.6,20.5c0-0.1,0-0.1,0.1-0.2C5.7,20.4,5.6,20.5,5.6,20.5z M6.8,21.3C6.8,21.3,6.8,21.3,6.8,21.3
	C6.8,21.3,6.8,21.3,6.8,21.3z M6.8,20.2C6.8,20.2,6.8,20.2,6.8,20.2C6.8,20.2,6.8,20.2,6.8,20.2z M7.1,18.4
	C7.1,18.4,7.1,18.3,7.1,18.4C7.1,18.4,7.1,18.4,7.1,18.4z M9.1,18.6C9.1,18.6,9.1,18.6,9.1,18.6C9.1,18.6,9.1,18.6,9.1,18.6z
	 M9.1,18.5C9.1,18.5,9.1,18.5,9.1,18.5C9.1,18.5,9.1,18.5,9.1,18.5z M10.1,18C10.1,18,10.1,18,10.1,18C10.1,18,10.1,18,10.1,18z
	 M10.1,18.7C10.1,18.7,10.1,18.7,10.1,18.7C10.1,18.7,10.1,18.7,10.1,18.7z M10.2,18.7C10.2,18.7,10.2,18.8,10.2,18.7
	C10.2,18.7,10.2,18.7,10.2,18.7z M12.5,15.9C12.5,15.9,12.5,15.9,12.5,15.9C12.5,15.9,12.5,15.9,12.5,15.9z"/>
<path class="st0" d="M6.4,27.2c-0.1-1.6-1.7-2.8-3.2-2.5C1.7,25,0.5,26.5,1,28C1.8,31.1,6.3,30.5,6.4,27.2L6.4,27.2z M5.4,27.5
	C5.4,27.4,5.4,27.4,5.4,27.5C5.5,27.5,5.5,27.5,5.4,27.5z"/>
<path class="st0" d="M13.3,4.7c0.5,2.1,2.4,3.3,3.8,4.5c0.6,0.4,1.3,0.9,1.9,1.3c2.9,2.3,3.5,3,1.9-1.1c-1.2-2.6-2.5-5.9-5.4-6.7
	C14.3,2.3,13,3.4,13.3,4.7z M21.6,12.1L21.6,12.1C21.6,12.2,21.6,12.2,21.6,12.1z M17.3,8.4C17.3,8.4,17.3,8.4,17.3,8.4
	C17.3,8.4,17.3,8.4,17.3,8.4z M16.4,8.1C16.4,8.1,16.4,8.1,16.4,8.1C16.4,8.1,16.4,8.1,16.4,8.1z M16.3,6C16.3,6,16.3,6,16.3,6
	C16.3,6,16.3,6,16.3,6z M14.6,6.5C14.6,6.5,14.6,6.5,14.6,6.5C14.6,6.5,14.6,6.5,14.6,6.5z"/>
<path class="st0" d="M43,26.9c-1.1-2.9-2.5-5.8-4.5-8.2c-0.2-0.4-0.6-0.7-0.9-1c-0.7-0.8-1.5-1.6-2.5-2.2c-2.3-1.9-5.4-3-8.2-3.1
	c-4.7-0.6-8.1,3.2-7.1,7.7c0.9,2.7,5.4,6.2,7.7,3.2c0.7-1.3,1-2.9,0.4-4.3c-0.3-1.3-1.5-1.8-2.6-2.1c1.3-2.2,4.3-2.3,6.5-1.3
	c2.9,1.2,5.7,3.6,7.8,6.5C39.9,22.5,43,29.2,43,26.9L43,26.9z M20.2,19.3C20.2,19.3,20.2,19.2,20.2,19.3
	C20.2,19.3,20.2,19.3,20.2,19.3z M21.2,20.9C21.2,20.9,21.2,20.9,21.2,20.9C21.2,20.9,21.2,20.9,21.2,20.9z M22.6,21.8
	c0,0.1-0.1,0.2-0.2,0.1C22.6,21.8,22.7,21.6,22.6,21.8z M22.8,13.3C22.8,13.3,22.8,13.3,22.8,13.3C22.8,13.3,22.8,13.3,22.8,13.3z
	 M23.4,18.6C23.4,18.6,23.4,18.6,23.4,18.6C23.4,18.6,23.4,18.6,23.4,18.6z M23.5,16.2C23.5,16.2,23.5,16.2,23.5,16.2
	C23.5,16.2,23.5,16.2,23.5,16.2z M24,13C24,13,23.9,13,24,13C24,13,24,13,24,13z M25,17.6C25,17.6,25,17.6,25,17.6L25,17.6z
	 M25.1,23.9C25.1,23.9,25.1,23.9,25.1,23.9C25.1,23.9,25.1,23.9,25.1,23.9z M25.1,23.9C25.1,23.9,25.1,23.9,25.1,23.9
	C25.1,23.9,25.1,23.9,25.1,23.9z M27,21.3C27,21.3,27,21.3,27,21.3C27,21.3,27,21.3,27,21.3z M25.8,22.4
	C25.8,22.5,25.8,22.4,25.8,22.4C25.8,22.4,25.8,22.4,25.8,22.4z M25.3,17.5C25.3,17.5,25.3,17.5,25.3,17.5
	C25.3,17.5,25.3,17.5,25.3,17.5z M27,14.8C27,14.8,27,14.8,27,14.8C27,14.8,27,14.8,27,14.8z M27.1,14.7
	C27.1,14.7,27.1,14.7,27.1,14.7C27.1,14.7,27.1,14.7,27.1,14.7z M27.4,13.9C27.4,13.9,27.4,13.9,27.4,13.9L27.4,13.9z M28.1,14.2
	C28.1,14.2,28.2,14.2,28.1,14.2C28.2,14.2,28.2,14.2,28.1,14.2z M41.4,23.5C41.4,23.5,41.4,23.4,41.4,23.5
	C41.4,23.4,41.4,23.5,41.4,23.5z"/>
<path class="st0" d="M4.8,10.6c0.2,2.4,3.2,2.6,5,2.4c1.4-0.1,2.9,0,4.4,0.2c1.5,0.1,2.9,0.3,4.4,0.2c1.3-0.2-1-1.3-1.3-1.7
	C14.6,9.9,11.1,8.4,8,8.5C6.8,8.7,4.7,9,4.8,10.6z M16.2,12.8C16.2,12.8,16.2,12.9,16.2,12.8C16.2,12.9,16.2,12.8,16.2,12.8z
	 M16,11.8C16,11.9,16,11.8,16,11.8C16,11.8,16,11.8,16,11.8z M13.8,12.1C13.8,12.1,13.8,12.1,13.8,12.1
	C13.8,12.1,13.8,12.1,13.8,12.1z M13.8,12.1C13.8,12.1,13.8,12.1,13.8,12.1C13.8,12.1,13.8,12.1,13.8,12.1z M13.1,10.5
	C13.1,10.5,13.1,10.6,13.1,10.5C13,10.6,13.1,10.5,13.1,10.5z M11.3,10.5C11.3,10.5,11.3,10.5,11.3,10.5
	C11.3,10.5,11.3,10.5,11.3,10.5z M7,9.6C7,9.6,7,9.6,7,9.6C7,9.6,7,9.6,7,9.6z"/>
</svg>
