<svg version="1.1" xmlns="http://www.w3.org/2000/svg" xmlns:xlink="http://www.w3.org/1999/xlink" x="0px" y="0px"
	 viewBox="0 0 24.3 23.9" style="enable-background:new 0 0 24.3 23.9;" xml:space="preserve">
<g>
	<g>
		<path fill="#1a1a1a" d="M16.1,14.4h-0.8L15,14.1c1.2-1.4,1.8-3.3,1.5-5.3c-0.5-2.8-2.8-5-5.6-5.3c-4.2-0.5-7.8,3-7.3,7.3
			C4,13.5,6.2,15.9,9,16.3c2,0.3,3.9-0.3,5.3-1.5l0.3,0.3v0.8l4.2,4.2c0.4,0.4,1.1,0.4,1.5,0s0.4-1.1,0-1.5L16.1,14.4z M10.1,14.4
			c-2.5,0-4.5-2-4.5-4.5s2-4.5,4.5-4.5s4.5,2,4.5,4.5S12.6,14.4,10.1,14.4z"/>
	</g>
</g>
</svg>
